<?xml version="1.0" encoding="UTF-8"?><svg id="Layer_2" xmlns="http://www.w3.org/2000/svg" viewBox="0 0 105.41 92.27"><g id="Layer_1-2"><g><path d="M46.03,66.85c-5.9-1.44-11.55-2.25-16.77-4.2C12.04,56.22,.55,39.71,0,21.38c-.15-5.02,1.92-7.73,7.04-8.11,18.28-1.36,37.34,6.07,47.08,24.64,3.31,6.32,4.97,13.03,5.1,20.11,.17,9.15,.23,18.3,.3,27.45,.02,2.97-1.38,5.17-4.13,6.23-2.44,.94-4.9,.78-7.05-.98-1.95-1.59-2.26-3.8-2.28-6.09-.04-5.24-.03-10.49-.04-15.73,0-.89,0-1.78,0-2.05Z"/><path d="M94.15,0c1.74,.09,3.51,.04,5.23,.28,4.01,.58,6.2,3.1,6.03,7.22-.45,10.69-3.6,20.43-10.55,28.75-6.81,8.14-15.45,13.27-25.76,15.64-3.56,.82-3.51,.82-4.3-2.72-1.96-8.76-5.73-16.66-11.54-23.51-1.2-1.41-1.33-2.3-.3-3.82C62.82,7.25,76.6,.11,94.15,0Z"/></g></g></svg>