<?xml version="1.0" encoding="UTF-8"?><svg id="Layer_2" xmlns="http://www.w3.org/2000/svg" viewBox="0 0 260.64 154.46"><defs><style>.cls-1{fill:#fff;stroke:#231f20;stroke-miterlimit:10;}</style></defs><g id="Layer_1-2"><path class="cls-1" d="M1.8,120.27s1.45,24.24,33.11,31.12c0,0,36.36,5.79,69.29,0,0,0,18.81-7.6,34.37-8.68,0,0,38.71,6.19,64.04-5.59,0,0,58.25-20.46,57.53-75.1,0,0-5.79-40.16-41.25-54.63,0,0-40.16-19.9-81.41,7.96,0,0-24.6,17.01-31.48,21.71,0,0-54.63-5.43-73.09,11.22,0,0-22.79,14.47-20.98,47.4,0,0-16.01,9.83-10.13,24.6Z"/></g></svg>