<?xml version="1.0" encoding="UTF-8"?><svg id="Layer_2" xmlns="http://www.w3.org/2000/svg" viewBox="0 0 265.85 157.85"><defs><style>.cls-1{fill:#fff;}.cls-1,.cls-2{stroke:#231f20;stroke-miterlimit:10;}.cls-2{fill:#231f20;}</style></defs><g id="Layer_1-2"><g><ellipse class="cls-2" cx="54.09" cy="45.53" rx="13.55" ry="9.25"/><circle class="cls-2" cx="224.01" cy="15.94" r="15.44"/><path class="cls-1" d="M7.01,123.66s1.45,24.24,33.11,31.12c0,0,36.36,5.79,69.29,0,0,0,18.81-7.6,34.37-8.68,0,0,38.71,6.19,64.04-5.59,0,0,58.25-20.46,57.53-75.1,0,0-5.79-40.16-41.25-54.63,0,0-40.16-19.9-81.41,7.96,0,0-24.6,17.01-31.48,21.71,0,0-54.63-5.43-73.09,11.22,0,0-22.79,14.47-20.98,47.4,0,0-16.01,9.83-10.13,24.6Z"/><path class="cls-2" d="M16.07,97.37S-2.39,90.39,.89,112.55c0,0,6.16,10.26,15.18,2.05,0,0,6.57-9.85,0-17.24Z"/><path class="cls-2" d="M44.88,72.39s-24.6,10.61-9.89,39.56c0,0,17.61,15.44,33.05,5.07,0,0,15.68-12.06,1.69-30.39,0,0-10.13-17.13-24.84-14.23Z"/><ellipse class="cls-2" cx="78.29" cy="42.61" rx="21.35" ry="15.92"/><ellipse class="cls-1" cx="39.43" cy="103.58" rx="2.38" ry="4.71" transform="translate(-36.04 22.41) rotate(-22.08)"/><path class="cls-2" d="M99.67,41.53s16.59,19.05,0,114.63c0,0,23.93-2.9,28.28-7.03,0,0,20.96-60.09,.68-119.85,0,0-10.47,7.36-14.24,9.53l-4.53,1.27-11.13-.18,.94,1.63Z"/></g></g></svg>