<svg id="Layer_2" xmlns="http://www.w3.org/2000/svg" viewBox="0 0 23.01 11.55"><g id="Layer_1-2"><g><path d="M11.12,.51c-.98,.59-1.97,1.07-2.8,1.74-.83,.67-1.5,1.54-2.33,2.41,1.84,2.15,2.95,4.82,5.53,6.34-2.01,.75-3.44,.36-4.57-1.21-.7-.97-1.39-1.96-2.11-2.92-.24-.33-.55-.61-1.09-1.18,0,1.6-.12,2.84,.06,4.03,.08,.49,.81,.89,1.34,1.43H.03c0-.1-.02-.24,0-.25,1.52-.35,1.41-1.51,1.38-2.68-.04-1.68-.01-3.36-.01-5.04q0-1.81-1.39-2.53C.61,.11,4.15,.04,5.24,.61c-2.63,.89-1.04,2.99-1.4,4.6,1.7-.89,2.8-2.34,3.94-3.91-.42-.24-.75-.42-1.07-.6,.55-.57,3.29-.68,4.42-.19Z"/><path d="M17.93,6.15h5.07q-1.1,1.46-1.11,4.8c-2.16,.54-4.34,.92-6.55,.22-2.39-.76-3.77-2.78-3.78-5.39,0-2.54,1.41-4.49,3.87-5.32,2.08-.7,4.16-.51,6.26,0,.1,.8,.21,1.54,.26,2.3,.01,.21-.19,.43-.29,.65-.15-.14-.38-.26-.45-.44-.43-1-1.05-1.78-2.17-2.06-2.24-.56-4.19,.47-4.56,2.83-.25,1.55,.04,3.23,.3,4.81,.1,.62,.72,1.24,1.25,1.68,.85,.71,2.88,.89,3.1,.27,.33-.96,.36-2.08,.23-3.09-.05-.38-.92-.66-1.42-.98,0-.08-.02-.17-.02-.25Z"/></g></g></svg>